<svg xmlns="http://www.w3.org/2000/svg" viewBox="0 0 512 512" width="512" height="512" role="img" aria-label="Kwiet">
  <mask id="quiet">
    <circle cx="256" cy="256" r="156" fill="#fff"/>
    <path d="M129.64 256L131.22 249.01L132.8 247L134.38 245.72L135.96 244.83L137.54 244.23L139.12 243.84L140.7 243.63L142.28 243.56L143.86 243.63L145.44 243.81L147.01 244.1L148.59 244.47L150.17 244.93L151.75 245.45L153.33 246.04L154.91 246.69L156.49 247.39L158.07 248.13L159.65 248.91L161.23 249.73L162.81 250.59L164.39 251.47L165.97 252.39L167.55 253.34L169.13 254.31L170.71 255.32L172.29 256.35L173.87 257.41L175.45 258.49L177.02 259.61L178.6 260.76L180.18 261.93L181.76 263.14L183.34 264.37L184.92 265.64L186.5 266.93L188.08 268.24L189.66 269.58L191.24 270.93L192.82 272.3L194.4 273.68L195.98 275.06L197.56 276.44L199.14 277.82L200.72 279.17L202.3 280.5L203.88 281.79L205.46 283.03L207.04 284.22L208.62 285.35L210.19 286.39L211.77 287.35L213.35 288.21L214.93 288.96L216.51 289.6L218.09 290.1L219.67 290.46L221.25 290.67L222.83 290.73L224.41 290.63L225.99 290.36L227.57 289.91L229.15 289.29L230.73 288.5L232.31 287.52L233.89 286.37L235.47 285.05L237.05 283.56L238.63 281.91L240.2 280.1L241.78 278.14L243.36 276.05L244.94 273.83L246.52 271.5L248.1 269.07L249.68 266.56L251.26 263.98L252.84 261.35L254.42 258.68L256 256L257.58 253.32L259.16 250.65L260.74 248.02L262.32 245.44L263.9 242.93L265.48 240.5L267.06 238.17L268.64 235.95L270.22 233.86L271.8 231.9L273.37 230.09L274.95 228.44L276.53 226.95L278.11 225.63L279.69 224.48L281.27 223.5L282.85 222.71L284.43 222.09L286.01 221.64L287.59 221.37L289.17 221.27L290.75 221.33L292.33 221.54L293.91 221.9L295.49 222.4L297.07 223.04L298.65 223.79L300.23 224.65L301.81 225.61L303.38 226.65L304.96 227.78L306.54 228.97L308.12 230.21L309.7 231.5L311.28 232.83L312.86 234.18L314.44 235.56L316.02 236.94L317.6 238.32L319.18 239.7L320.76 241.07L322.34 242.42L323.92 243.76L325.5 245.07L327.08 246.36L328.66 247.63L330.24 248.86L331.82 250.07L333.4 251.24L334.98 252.39L336.55 253.51L338.13 254.59L339.71 255.65L341.29 256.68L342.87 257.69L344.45 258.66L346.03 259.61L347.61 260.53L349.19 261.41L350.77 262.27L352.35 263.09L353.93 263.87L355.51 264.61L357.09 265.31L358.67 265.96L360.25 266.55L361.83 267.07L363.41 267.53L364.99 267.9L366.56 268.19L368.14 268.37L369.72 268.44L371.3 268.37L372.88 268.16L374.46 267.77L376.04 267.17L377.62 266.28L379.2 265L380.78 262.99L382.36 256" fill="none" stroke="#000" stroke-width="44" stroke-linecap="round" stroke-linejoin="round"/>
  </mask>
  <g stroke="#E0A458" stroke-linecap="round" fill="none">
    <path d="M105.54 138.18L133.72 124.23" stroke-width="17.5" stroke-opacity="0.27"/>
    <path d="M227.67 426.22L186.72 440.6" stroke-width="20.72" stroke-opacity="0.66"/>
    <path d="M482.52 266.83L466.41 284.98" stroke-width="18.41" stroke-opacity="0.33"/>
    <path d="M424.67 132.48L464.6 128.46" stroke-width="14.24" stroke-opacity="0.27"/>
    <path d="M58.99 262.38L83.84 219.63" stroke-width="16.32" stroke-opacity="0.32"/>
    <path d="M452.21 174.95L497.4 195.1" stroke-width="20.66" stroke-opacity="0.33"/>
    <path d="M249.62 54.99L267.74 39.76" stroke-width="20.44" stroke-opacity="0.54"/>
    <path d="M75.94 201.88L94.93 170.94" stroke-width="18.65" stroke-opacity="0.73"/>
    <path d="M414.73 144.13L456.32 175.84" stroke-width="14.45" stroke-opacity="0.62"/>
    <path d="M196.1 97.49L206.86 52.51" stroke-width="19.51" stroke-opacity="0.51"/>
    <path d="M42.25 281.42L59.23 259.53" stroke-width="21.99" stroke-opacity="0.52"/>
    <path d="M428.84 217.94L447.97 229.18" stroke-width="13.31" stroke-opacity="0.38"/>
    <path d="M89.08 91.84L134.84 73.01" stroke-width="21.39" stroke-opacity="0.21"/>
    <path d="M227.26 59.91L259.6 84.73" stroke-width="20.93" stroke-opacity="0.79"/>
    <path d="M423.69 192.31L443.7 201.89" stroke-width="14.03" stroke-opacity="0.34"/>
    <path d="M423.07 399.92L419.26 423.27" stroke-width="14.07" stroke-opacity="0.17"/>
    <path d="M122.8 464.4L104.83 443.42" stroke-width="16.02" stroke-opacity="0.1"/>
    <path d="M446.2 388.92L438.44 436.09" stroke-width="19.66" stroke-opacity="0.19"/>
    <path d="M348.82 443.81L332.61 458.94" stroke-width="18.24" stroke-opacity="0.24"/>
    <path d="M374.95 97.08L372.47 125.42" stroke-width="13.29" stroke-opacity="0.73"/>
    <path d="M85.1 372.4L82.84 347.04" stroke-width="16.91" stroke-opacity="0.44"/>
    <path d="M439.89 292.74L451.65 317.41" stroke-width="20.82" stroke-opacity="0.63"/>
  </g>
  <circle cx="256" cy="256" r="156" fill="#9FD3C0" mask="url(#quiet)"/>
</svg>
